HIERARCHY
ROOT joint_Root
{
	OFFSET 0.0 0.0 0.0
	CHANNELS 6 Xposition Yposition Zposition Zrotation Xrotation Yrotation 
	JOINT Hips
	{
		OFFSET -17.1583 93.1646 452.98
		CHANNELS 6 Xposition Yposition Zposition Zrotation Xrotation Yrotation 
		JOINT Spine
		{
			OFFSET 15.7357 0.0 0.0
			CHANNELS 6 Xposition Yposition Zposition Zrotation Xrotation Yrotation 
			JOINT Chest
			{
				OFFSET 8.98455 -0.406207 0.0
				CHANNELS 6 Xposition Yposition Zposition Zrotation Xrotation Yrotation 
				JOINT Neck
				{
					OFFSET 16.3773 0.0 0.0
					CHANNELS 6 Xposition Yposition Zposition Zrotation Xrotation Yrotation 
					JOINT Head
					{
						OFFSET 6.45672 0.0 0.0
						CHANNELS 6 Xposition Yposition Zposition Zrotation Xrotation Yrotation 
						End Site
						{
							OFFSET 0.0 0.0 0.0
						}
					}
				}
				JOINT Shoulder_L
				{
					OFFSET 12.9942 -0.242716 4.98039
					CHANNELS 6 Xposition Yposition Zposition Zrotation Xrotation Yrotation 
					JOINT UpperArm_L
					{
						OFFSET 5.34809 0.0 0.0
						CHANNELS 6 Xposition Yposition Zposition Zrotation Xrotation Yrotation 
						JOINT LowerArm_L
						{
							OFFSET 24.3286 1.87007e-05 0.0
							CHANNELS 6 Xposition Yposition Zposition Zrotation Xrotation Yrotation 
							JOINT Hand_L
							{
								OFFSET 22.2916 0.0 0.0
								CHANNELS 6 Xposition Yposition Zposition Zrotation Xrotation Yrotation 
								End Site
								{
									OFFSET 0.0 0.0 0.0
								}
							}
						}
					}
				}
				JOINT Shoulder_R
				{
					OFFSET 12.9945 -0.242716 -4.98039
					CHANNELS 6 Xposition Yposition Zposition Zrotation Xrotation Yrotation 
					JOINT UpperArm_R
					{
						OFFSET -5.34813 0.0 0.0
						CHANNELS 6 Xposition Yposition Zposition Zrotation Xrotation Yrotation 
						JOINT LowerArm_R
						{
							OFFSET -24.3289 0.000322201 0.0
							CHANNELS 6 Xposition Yposition Zposition Zrotation Xrotation Yrotation 
							JOINT Hand_R
							{
								OFFSET -22.2915 -0.000108084 0.0
								CHANNELS 6 Xposition Yposition Zposition Zrotation Xrotation Yrotation 
								End Site
								{
									OFFSET 0.0 0.0 0.0
								}
							}
						}
					}
				}
			}
		}
		JOINT UpperLeg_L
		{
			OFFSET -2.19248 -6.46944 0.0
			CHANNELS 6 Xposition Yposition Zposition Zrotation Xrotation Yrotation 
			JOINT LowerLeg_L
			{
				OFFSET 39.0811 0.0 -1.23785e-05
				CHANNELS 6 Xposition Yposition Zposition Zrotation Xrotation Yrotation 
				JOINT Foot_L
				{
					OFFSET 40.9854 0.0 -1.26872e-05
					CHANNELS 6 Xposition Yposition Zposition Zrotation Xrotation Yrotation 
					JOINT Toes_L
					{
						OFFSET 11.7543 0.0 0.0
						CHANNELS 6 Xposition Yposition Zposition Zrotation Xrotation Yrotation 
						End Site
						{
							OFFSET 0.0 0.0 0.0
						}
					}
				}
			}
		}
		JOINT UpperLeg_R
		{
			OFFSET -2.19251 6.46944 0.0
			CHANNELS 6 Xposition Yposition Zposition Zrotation Xrotation Yrotation 
			JOINT LowerLeg_R
			{
				OFFSET -39.0811 -0.00228153 -0.0401928
				CHANNELS 6 Xposition Yposition Zposition Zrotation Xrotation Yrotation 
				JOINT Foot_R
				{
					OFFSET -40.9854 0.0 0.0
					CHANNELS 6 Xposition Yposition Zposition Zrotation Xrotation Yrotation 
					JOINT Toes_R
					{
						OFFSET -11.7543 0.0 0.0
						CHANNELS 6 Xposition Yposition Zposition Zrotation Xrotation Yrotation 
						End Site
						{
							OFFSET 0.0 0.0 0.0
						}
					}
				}
			}
		}
	}
}
MOTION
Frames:	6
Frame Time:	0.0333333
0.000000 0.000000 0.000000 0.000000 0.000000 -0.000000 -1.736610 93.572000 -3.372520 87.902100 5.144500 0.842728 15.735700 0.000005 -0.000001 73.296600 85.586700 -70.744200 8.984550 -0.406207 -0.000000 0.754363 -2.692060 5.119520 16.377300 -0.000001 -0.000001 -5.379440 1.909250 0.500151 6.456720 -0.000001 -0.000000 -19.396800 2.739600 0.330166 12.994200 -0.242716 4.980390 -91.882100 5.906820 -72.290600 5.348090 -0.000007 -0.000001 -71.388200 2.268910 -13.282600 24.328600 0.000019 0.000005 0.674546 26.145400 -1.549140 22.291600 -0.000001 0.000005 -26.385100 5.092890 5.284630 12.994500 -0.242716 -4.980390 88.242900 4.854520 -70.075000 -5.348130 -0.000001 -0.000004 -66.422000 0.662598 -11.500500 -24.328900 0.000322 -0.000009 -1.311800 -12.934800 -5.864280 -22.291500 -0.000108 -0.000004 -17.075200 4.864710 10.073400 -2.192480 -6.469440 -0.000000 -173.153000 -9.000050 -3.792680 39.081100 -0.000007 -0.000012 -0.013360 0.051972 14.415500 40.985400 -0.000006 -0.000013 -1.049150 17.281200 -65.706300 11.754300 -0.000000 0.000003 -0.001516 0.190113 -8.864290 -2.192510 6.469440 -0.000001 177.801000 14.314000 -179.498000 -39.081100 -0.002282 -0.040193 0.004948 -0.009286 9.829050 -40.985400 0.000008 0.000006 -7.970880 8.927070 -63.691300 -11.754300 -0.000006 -0.000006 -0.008678 0.261146 -5.966290
0.000000 0.000000 0.000000 0.000000 0.000000 -0.000000 -1.734650 93.682100 -2.930070 87.900800 5.597560 -0.999658 15.735700 0.000005 -0.000001 64.722800 86.855600 -62.093000 8.984550 -0.406207 -0.000000 -2.008140 -2.908730 5.208640 16.377300 -0.000001 -0.000001 -4.261140 2.039580 0.445155 6.456720 -0.000001 -0.000000 -16.885800 3.001270 -0.084456 12.994200 -0.242716 4.980390 -91.901700 5.598910 -71.205700 5.348090 -0.000007 -0.000001 -65.173700 -6.789040 -14.469800 24.328600 0.000019 0.000005 0.000461 38.302600 -0.000005 22.291600 -0.000001 0.000005 -28.328200 4.989900 7.530550 12.994500 -0.242716 -4.980390 88.281000 4.424830 -68.743800 -5.348130 -0.000001 -0.000004 -63.342100 -15.182400 -13.254800 -24.328900 0.000322 -0.000009 -0.001499 -16.743900 -0.000093 -22.291500 -0.000108 -0.000004 -7.357310 4.897750 9.406220 -2.192480 -6.469440 -0.000000 -173.353000 -9.039090 -4.668000 39.081100 -0.000007 -0.000012 -0.012538 0.054466 12.962800 40.985400 -0.000006 -0.000013 -1.246140 17.544800 -65.594800 11.754300 -0.000000 0.000003 -0.001544 0.190485 -8.849160 -2.192510 6.469440 -0.000001 178.108000 15.686600 -179.704000 -39.081100 -0.002282 -0.040193 0.004226 -0.007029 7.152990 -40.985400 0.000008 0.000006 -8.699190 9.685400 -62.365600 -11.754300 -0.000006 -0.000006 -0.009151 0.264846 -5.815070
0.000000 0.000000 0.000000 0.000000 0.000000 -0.000000 -1.738410 93.729800 -2.353820 88.024200 5.906040 -2.386450 15.735700 0.000005 -0.000001 53.281300 87.733800 -50.760800 8.984550 -0.406207 -0.000000 -4.065340 -2.968020 4.938990 16.377300 -0.000001 -0.000001 -3.672260 2.072090 0.514490 6.456720 -0.000001 -0.000000 -15.176100 3.192530 -0.012075 12.994200 -0.242716 4.980390 -92.117200 5.753290 -69.757100 5.348090 -0.000007 -0.000001 -55.978700 -15.000500 -15.803100 24.328600 0.000019 0.000005 -0.000093 39.787100 -0.000005 22.291600 -0.000001 0.000005 -25.360900 5.033610 6.587660 12.994500 -0.242716 -4.980390 88.486600 3.659480 -67.513100 -5.348130 -0.000001 -0.000004 -59.323000 -30.691600 -13.516600 -24.328900 0.000322 -0.000009 -0.001496 -18.349800 -0.000102 -22.291500 -0.000108 -0.000004 3.125190 4.775350 11.764800 -2.192480 -6.469440 -0.000000 -173.575000 -9.242840 -5.092290 39.081100 -0.000007 -0.000012 -0.011662 0.055775 11.809200 40.985400 -0.000006 -0.000013 -1.373790 17.949900 -65.732100 11.754300 -0.000000 0.000003 -0.001504 0.189950 -8.870920 -2.192510 6.469440 -0.000001 178.262000 15.833500 -179.610000 -39.081100 -0.002282 -0.040193 0.005075 -0.019753 4.998480 -40.985400 0.000008 0.000006 -9.317740 9.461510 -61.626300 -11.754300 -0.000006 -0.000006 -0.009124 0.264636 -5.823690
0.000000 0.000000 0.000000 0.000000 0.000000 -0.000000 -1.730380 93.695400 -1.718670 88.119600 6.026080 -3.017290 15.735700 0.000005 -0.000001 41.425500 88.203700 -39.083100 8.984550 -0.406207 -0.000000 -5.328020 -2.957980 4.552420 16.377300 -0.000001 -0.000001 -3.500750 2.054920 0.608455 6.456720 -0.000001 -0.000000 -13.616000 3.288800 0.289217 12.994200 -0.242716 4.980390 -92.238100 5.602430 -68.181700 5.348090 -0.000007 -0.000001 -47.992100 -27.662000 -18.309900 24.328600 0.000019 0.000005 0.000019 24.863300 -0.000002 22.291600 -0.000001 0.000005 -16.734000 4.943680 8.441600 12.994500 -0.242716 -4.980390 88.695800 2.969080 -66.270800 -5.348130 -0.000001 -0.000004 -53.312200 -41.272300 -14.895400 -24.328900 0.000322 -0.000009 -0.000995 -23.770000 -0.000133 -22.291500 -0.000108 -0.000004 6.302700 4.731230 12.591000 -2.192480 -6.469440 -0.000000 -173.647000 -9.589110 -5.153110 39.081100 -0.000007 -0.000012 -0.015439 0.075915 11.495100 40.985400 -0.000006 -0.000013 -1.371840 18.309700 -65.916700 11.754300 -0.000000 0.000003 -0.001553 0.190608 -8.844190 -2.192510 6.469440 -0.000001 178.274000 15.723800 -179.542000 -39.081100 -0.002282 -0.040193 0.005362 -0.025821 4.460190 -40.985400 0.000008 0.000006 -9.437660 9.228010 -61.671700 -11.754300 -0.000006 -0.000006 -0.009211 0.265315 -5.795910
0.000000 0.000000 0.000000 0.000000 0.000000 -0.000000 -1.706180 93.659000 -1.121620 88.123500 5.847990 -3.302950 15.735700 0.000005 -0.000001 30.867600 88.499500 -28.700200 8.984550 -0.406207 -0.000000 -6.173140 -2.835190 4.188290 16.377300 -0.000001 -0.000001 -3.362700 2.052090 0.693814 6.456720 -0.000001 -0.000000 -12.353200 3.337980 0.722893 12.994200 -0.242716 4.980390 -91.942200 4.588950 -67.029300 5.348090 -0.000007 -0.000001 -43.084700 -41.071500 -23.140500 24.328600 0.000019 0.000005 0.000815 8.503500 -0.000000 22.291600 -0.000001 0.000005 -6.852660 4.752080 12.142900 12.994500 -0.242716 -4.980390 89.300000 1.531120 -65.423000 -5.348130 -0.000001 -0.000004 -47.367300 -48.857000 -16.773600 -24.328900 0.000322 -0.000009 -0.001069 -26.975700 -0.000153 -22.291500 -0.000108 -0.000004 7.139310 4.692260 13.296700 -2.192480 -6.469440 -0.000000 -173.607000 -9.894910 -4.933230 39.081100 -0.000007 -0.000012 -0.017376 0.086351 11.377200 40.985400 -0.000006 -0.000013 -1.448690 18.351300 -66.187800 11.754300 -0.000000 0.000003 -0.001663 0.192046 -8.785710 -2.192510 6.469440 -0.000001 178.235000 15.557700 -179.157000 -39.081100 -0.002282 -0.040193 0.005292 -0.028488 3.902500 -40.985400 0.000008 0.000006 -9.663070 9.285210 -61.630400 -11.754300 -0.000006 -0.000006 -0.009782 0.269670 -5.617840
0.000000 0.000000 0.000000 0.000000 0.000000 -0.000000 -1.699530 93.639100 -0.612060 88.110600 5.540170 -3.498880 15.735700 0.000005 -0.000001 23.547600 88.630400 -21.510300 8.984550 -0.406207 -0.000000 -6.623530 -2.762070 3.921480 16.377300 -0.000001 -0.000001 -3.453560 1.952490 0.720305 6.456720 -0.000001 -0.000000 -11.645100 3.449420 0.893373 12.994200 -0.242716 4.980390 -91.211600 2.809430 -66.660500 5.348090 -0.000007 -0.000001 -40.062500 -51.310600 -29.451000 24.328600 0.000019 0.000005 0.000087 2.375070 0.000000 22.291600 -0.000001 0.000005 5.151080 4.539960 15.882500 12.994500 -0.242716 -4.980390 90.072200 -0.150194 -64.384200 -5.348130 -0.000001 -0.000004 -42.904800 -53.760100 -21.071900 -24.328900 0.000322 -0.000009 -0.001112 -27.000300 -0.000153 -22.291500 -0.000108 -0.000004 9.662010 4.698650 13.186400 -2.192480 -6.469440 -0.000000 -173.509000 -9.881680 -4.602260 39.081100 -0.000007 -0.000012 -0.017886 0.090954 11.124800 40.985400 -0.000006 -0.000013 -1.893530 18.148000 -66.178500 11.754300 -0.000000 0.000003 -0.001671 0.192146 -8.781640 -2.192510 6.469440 -0.000001 178.233000 15.606000 -179.057000 -39.081100 -0.002282 -0.040193 0.004992 -0.023966 3.922920 -40.985400 0.000008 0.000006 -9.570350 9.552890 -61.702600 -11.754300 -0.000006 -0.000006 -0.009389 0.266683 -5.740000
